<svg xmlns="http://www.w3.org/2000/svg" xmlns:xlink="http://www.w3.org/1999/xlink" viewBox="0 0 64 64"><linearGradient id="gg0G~EEij9c_uYBa1TCoEa" x1="32" x2="32" y1="32" y2="56.999" gradientUnits="userSpaceOnUse" spreadMethod="reflect"><stop offset="0" stop-color="#6dc7ff"/><stop offset="1" stop-color="#e6abff"/></linearGradient><path fill="url(#gg0G~EEij9c_uYBa1TCoEa)" d="M38.124,47H36c-0.552,0-1-0.434-1-0.987V32.999C35,32.448,34.554,32,34.003,32h-4.006 C29.446,32,29,32.448,29,32.999v13.014C29,46.566,28.552,47,28,47h-2.124c-0.721,0-1.132,0.89-0.7,1.508l5.424,7.76 c0.68,0.973,2.119,0.974,2.799,0.002l5.424-7.763C39.256,47.889,38.844,47,38.124,47z"/><linearGradient id="gg0G~EEij9c_uYBa1TCoEb" x1="23" x2="23" y1="6.834" y2="45.425" gradientUnits="userSpaceOnUse" spreadMethod="reflect"><stop offset="0" stop-color="#1a6dff"/><stop offset="1" stop-color="#c822ff"/></linearGradient><path fill="url(#gg0G~EEij9c_uYBa1TCoEb)" d="M19,19h2c0-3,2.691-5.999,6-5.999v-2C22.589,11.001,19,15,19,19z"/><linearGradient id="gg0G~EEij9c_uYBa1TCoEc" x1="32" x2="32" y1="6.833" y2="45.426" gradientUnits="userSpaceOnUse" spreadMethod="reflect"><stop offset="0" stop-color="#1a6dff"/><stop offset="1" stop-color="#c822ff"/></linearGradient><path fill="url(#gg0G~EEij9c_uYBa1TCoEc)" d="M58,34.001c0-2.267-1.088-4.361-2.894-5.667C55.699,26.964,56,25.509,56,24.001 c0-6.065-4.935-11-11-11c-2.424,0-4.721,0.777-6.618,2.218C36.781,10.369,32.235,7.001,27,7.001c-6.617,0-12,5.383-12,12 C15,20.544,15.063,22,15.53,23H15c-4.963,0-9,4.037-9,9c0,4.303,3.037,7.906,7.08,8.789C13.461,43.17,15.513,45,18,45h7v-2h-7 c-1.302,0-2.402-1-2.816-2H25v-2H15c-3.859,0-7-3.141-7-7s3.141-7,7-7h3.54l-0.627-1.407C17.083,21.728,17,20.807,17,19.001 c0-5.514,4.486-10,10-10c4.844,0,8.979,3.46,9.833,8.228l0.345,1.924l1.358-1.404c1.714-1.771,4.01-2.747,6.464-2.747 c4.963,0,9,4.037,9,9c0,1.368-0.303,2.683-0.884,3.877l-0.656,1.238l0.882,0.469C54.981,30.456,56,32.149,56,34.001 C56,36.758,53.757,39,51,39H39v2h10.816c-0.414,1-1.514,2-2.816,2h-8v2h8c2.437,0,4.466-1.754,4.906-4.065 C55.338,40.488,58,37.553,58,34.001z"/><linearGradient id="gg0G~EEij9c_uYBa1TCoEd" x1="48.5" x2="48.5" y1="6.834" y2="45.425" gradientUnits="userSpaceOnUse" spreadMethod="reflect"><stop offset="0" stop-color="#1a6dff"/><stop offset="1" stop-color="#c822ff"/></linearGradient><path fill="url(#gg0G~EEij9c_uYBa1TCoEd)" d="M52,24c0-4-3.141-6.999-7-6.999v2c2.757,0,5,1.999,5,4.999H52z"/></svg>