<svg xmlns="http://www.w3.org/2000/svg" xmlns:xlink="http://www.w3.org/1999/xlink" viewBox="0 0 64 64"><linearGradient id="yJBNuRAsX4J12z5mVT7kaa" x1="32" x2="32" y1="901" y2="845.988" gradientTransform="matrix(1 0 0 -1 0 906)" gradientUnits="userSpaceOnUse" spreadMethod="reflect"><stop offset="0" stop-color="#1a6dff"/><stop offset="1" stop-color="#c822ff"/></linearGradient><path fill="url(#yJBNuRAsX4J12z5mVT7kaa)" d="M51.121,15.707l-8.828-8.828C41.727,6.313,40.973,6,40.171,6H15c-1.654,0-3,1.346-3,3v40v2v4 c0,1.654,1.346,3,3,3h34c1.654,0,3-1.346,3-3v-4v-2V17.828C52,17.027,51.688,16.273,51.121,15.707z M48.586,16H43 c-0.551,0-1-0.448-1-1V9.414L48.586,16z M49,56H15c-0.551,0-1-0.448-1-1v-1.185C14.314,53.928,14.648,54,15,54h34 c0.352,0,0.686-0.072,1-0.184V55C50,55.552,49.551,56,49,56z M50,51c0,0.552-0.449,1-1,1H15c-0.551,0-1-0.448-1-1v-2V9 c0-0.552,0.449-1,1-1h25v7c0,1.654,1.346,3,3,3h7v31V51z"/><linearGradient id="yJBNuRAsX4J12z5mVT7kab" x1="33" x2="33" y1="29" y2="39" gradientUnits="userSpaceOnUse" spreadMethod="reflect"><stop offset="0" stop-color="#6dc7ff"/><stop offset="1" stop-color="#e6abff"/></linearGradient><path fill="url(#yJBNuRAsX4J12z5mVT7kab)" d="M31.5,39h-1c-0.276,0-0.5-0.224-0.5-0.5V30c0-0.552,0.448-1,1-1h3c1.105,0,2,0.895,2,2v3 c0,1.105-0.895,2-2,2h-2v2.5C32,38.776,31.776,39,31.5,39z M32,34h1.5c0.276,0,0.5-0.224,0.5-0.5v-2c0-0.276-0.224-0.5-0.5-0.5H32 V34z"/><linearGradient id="yJBNuRAsX4J12z5mVT7kac" x1="41" x2="41" y1="29" y2="39" gradientUnits="userSpaceOnUse" spreadMethod="reflect"><stop offset="0" stop-color="#6dc7ff"/><stop offset="1" stop-color="#e6abff"/></linearGradient><path fill="url(#yJBNuRAsX4J12z5mVT7kac)" d="M38,29.5v1c0,0.276,0.224,0.5,0.5,0.5h3c0.276,0,0.5,0.224,0.5,0.5v1 c0,0.276-0.224,0.5-0.5,0.5h-2c-0.276,0-0.5,0.224-0.5,0.5v1c0,0.276,0.224,0.5,0.5,0.5h2c0.276,0,0.5,0.224,0.5,0.5v1 c0,0.276-0.224,0.5-0.5,0.5h-3c-0.276,0-0.5,0.224-0.5,0.5v1c0,0.276,0.224,0.5,0.5,0.5H42c1.105,0,2-0.895,2-2v-2.086 c0-0.265-0.105-0.52-0.293-0.707L43.5,34l0.207-0.207C43.895,33.605,44,33.351,44,33.086V31c0-1.105-0.895-2-2-2h-3.5 C38.224,29,38,29.224,38,29.5z"/><linearGradient id="yJBNuRAsX4J12z5mVT7kad" x1="24" x2="24" y1="29" y2="39" gradientUnits="userSpaceOnUse" spreadMethod="reflect"><stop offset="0" stop-color="#6dc7ff"/><stop offset="1" stop-color="#e6abff"/></linearGradient><path fill="url(#yJBNuRAsX4J12z5mVT7kad)" d="M27.524,29.475l0.45,9C27.988,38.761,27.76,39,27.474,39H26.48 c-0.268,0-0.488-0.211-0.5-0.479L25.75,33l-1.173,2.155c-0.249,0.457-0.905,0.457-1.154,0L22.25,33l-0.23,5.521 C22.009,38.789,21.788,39,21.52,39h-0.995c-0.286,0-0.514-0.239-0.499-0.525l0.45-9C20.49,29.209,20.709,29,20.976,29h1.214 c0.19,0,0.363,0.108,0.448,0.278L24,32.024l1.362-2.746C25.447,29.108,25.62,29,25.81,29h1.214 C27.291,29,27.51,29.209,27.524,29.475z"/></svg>